<mxfile host="app.diagrams.net" modified="2023-02-15T15:53:09.228Z" agent="5.0 (X11; Linux x86_64) AppleWebKit/537.36 (KHTML, like Gecko) Chrome/110.0.0.0 Safari/537.36" etag="wpJLP1hyabMHx4UwwNSY" version="20.8.13" type="github" pages="4">
  <diagram id="C5RBs43oDa-KdzZeNtuy" name="1-1">
    <mxGraphModel dx="1360" dy="775" grid="1" gridSize="10" guides="1" tooltips="1" connect="1" arrows="1" fold="1" page="1" pageScale="1" pageWidth="827" pageHeight="1169" math="0" shadow="0">
      <root>
        <mxCell id="WIyWlLk6GJQsqaUBKTNV-0" />
        <mxCell id="WIyWlLk6GJQsqaUBKTNV-1" parent="WIyWlLk6GJQsqaUBKTNV-0" />
        <mxCell id="GaiL-ps6qoWrpRoLrBL6-17" value="" style="edgeStyle=orthogonalEdgeStyle;rounded=0;orthogonalLoop=1;jettySize=auto;html=1;" edge="1" parent="WIyWlLk6GJQsqaUBKTNV-1" source="GaiL-ps6qoWrpRoLrBL6-1" target="GaiL-ps6qoWrpRoLrBL6-3">
          <mxGeometry relative="1" as="geometry" />
        </mxCell>
        <mxCell id="GaiL-ps6qoWrpRoLrBL6-1" value="начало" style="ellipse;whiteSpace=wrap;html=1;" vertex="1" parent="WIyWlLk6GJQsqaUBKTNV-1">
          <mxGeometry x="340" y="230" width="120" height="50" as="geometry" />
        </mxCell>
        <mxCell id="GaiL-ps6qoWrpRoLrBL6-2" value="конец" style="ellipse;whiteSpace=wrap;html=1;" vertex="1" parent="WIyWlLk6GJQsqaUBKTNV-1">
          <mxGeometry x="340" y="630" width="120" height="50" as="geometry" />
        </mxCell>
        <mxCell id="GaiL-ps6qoWrpRoLrBL6-19" value="" style="edgeStyle=orthogonalEdgeStyle;rounded=0;orthogonalLoop=1;jettySize=auto;html=1;" edge="1" parent="WIyWlLk6GJQsqaUBKTNV-1" source="GaiL-ps6qoWrpRoLrBL6-3" target="GaiL-ps6qoWrpRoLrBL6-5">
          <mxGeometry relative="1" as="geometry" />
        </mxCell>
        <mxCell id="GaiL-ps6qoWrpRoLrBL6-3" value="ввод" style="shape=parallelogram;perimeter=parallelogramPerimeter;whiteSpace=wrap;html=1;fixedSize=1;size=30;" vertex="1" parent="WIyWlLk6GJQsqaUBKTNV-1">
          <mxGeometry x="335" y="330" width="130" height="60" as="geometry" />
        </mxCell>
        <mxCell id="GaiL-ps6qoWrpRoLrBL6-32" style="edgeStyle=orthogonalEdgeStyle;rounded=0;orthogonalLoop=1;jettySize=auto;html=1;entryX=0.5;entryY=0;entryDx=0;entryDy=0;" edge="1" parent="WIyWlLk6GJQsqaUBKTNV-1" source="GaiL-ps6qoWrpRoLrBL6-4" target="GaiL-ps6qoWrpRoLrBL6-2">
          <mxGeometry relative="1" as="geometry">
            <mxPoint x="400" y="620" as="targetPoint" />
            <Array as="points">
              <mxPoint x="175" y="590" />
              <mxPoint x="400" y="590" />
            </Array>
          </mxGeometry>
        </mxCell>
        <mxCell id="GaiL-ps6qoWrpRoLrBL6-4" value="вывод&lt;br&gt;нет" style="shape=parallelogram;perimeter=parallelogramPerimeter;whiteSpace=wrap;html=1;fixedSize=1;size=30;" vertex="1" parent="WIyWlLk6GJQsqaUBKTNV-1">
          <mxGeometry x="110" y="460" width="130" height="60" as="geometry" />
        </mxCell>
        <mxCell id="GaiL-ps6qoWrpRoLrBL6-8" value="" style="group" vertex="1" connectable="0" parent="WIyWlLk6GJQsqaUBKTNV-1">
          <mxGeometry x="310" y="450" width="180" height="80" as="geometry" />
        </mxCell>
        <mxCell id="GaiL-ps6qoWrpRoLrBL6-5" value="int % 4 == 0" style="rhombus;whiteSpace=wrap;html=1;" vertex="1" parent="GaiL-ps6qoWrpRoLrBL6-8">
          <mxGeometry x="20" width="140" height="80" as="geometry" />
        </mxCell>
        <mxCell id="GaiL-ps6qoWrpRoLrBL6-6" value="да" style="text;html=1;align=center;verticalAlign=middle;resizable=0;points=[];autosize=1;strokeColor=none;fillColor=none;" vertex="1" parent="GaiL-ps6qoWrpRoLrBL6-8">
          <mxGeometry x="140" width="40" height="30" as="geometry" />
        </mxCell>
        <mxCell id="GaiL-ps6qoWrpRoLrBL6-7" value="нет" style="text;html=1;align=center;verticalAlign=middle;resizable=0;points=[];autosize=1;strokeColor=none;fillColor=none;" vertex="1" parent="GaiL-ps6qoWrpRoLrBL6-8">
          <mxGeometry width="40" height="30" as="geometry" />
        </mxCell>
        <mxCell id="GaiL-ps6qoWrpRoLrBL6-33" style="edgeStyle=orthogonalEdgeStyle;rounded=0;orthogonalLoop=1;jettySize=auto;html=1;" edge="1" parent="WIyWlLk6GJQsqaUBKTNV-1" source="GaiL-ps6qoWrpRoLrBL6-20">
          <mxGeometry relative="1" as="geometry">
            <mxPoint x="400" y="630" as="targetPoint" />
            <Array as="points">
              <mxPoint x="620" y="590" />
              <mxPoint x="400" y="590" />
            </Array>
          </mxGeometry>
        </mxCell>
        <mxCell id="GaiL-ps6qoWrpRoLrBL6-20" value="вывод&lt;br&gt;да" style="shape=parallelogram;perimeter=parallelogramPerimeter;whiteSpace=wrap;html=1;fixedSize=1;" vertex="1" parent="WIyWlLk6GJQsqaUBKTNV-1">
          <mxGeometry x="560" y="460" width="120" height="60" as="geometry" />
        </mxCell>
        <mxCell id="GaiL-ps6qoWrpRoLrBL6-21" value="" style="edgeStyle=orthogonalEdgeStyle;rounded=0;orthogonalLoop=1;jettySize=auto;html=1;" edge="1" parent="WIyWlLk6GJQsqaUBKTNV-1" source="GaiL-ps6qoWrpRoLrBL6-5" target="GaiL-ps6qoWrpRoLrBL6-20">
          <mxGeometry relative="1" as="geometry" />
        </mxCell>
        <mxCell id="GaiL-ps6qoWrpRoLrBL6-30" value="" style="edgeStyle=orthogonalEdgeStyle;rounded=0;orthogonalLoop=1;jettySize=auto;html=1;" edge="1" parent="WIyWlLk6GJQsqaUBKTNV-1" target="GaiL-ps6qoWrpRoLrBL6-4">
          <mxGeometry relative="1" as="geometry">
            <mxPoint x="330" y="490" as="sourcePoint" />
          </mxGeometry>
        </mxCell>
      </root>
    </mxGraphModel>
  </diagram>
  <diagram name="Copy of 1-1" id="HBMApsnj_sch5Jqg_7rA">
    <mxGraphModel dx="1360" dy="775" grid="1" gridSize="10" guides="1" tooltips="1" connect="1" arrows="1" fold="1" page="1" pageScale="1" pageWidth="827" pageHeight="1169" math="0" shadow="0">
      <root>
        <mxCell id="NqgdZyKYqrlg2Jjtovyy-0" />
        <mxCell id="NqgdZyKYqrlg2Jjtovyy-1" parent="NqgdZyKYqrlg2Jjtovyy-0" />
        <mxCell id="NqgdZyKYqrlg2Jjtovyy-2" value="" style="edgeStyle=orthogonalEdgeStyle;rounded=0;orthogonalLoop=1;jettySize=auto;html=1;" edge="1" parent="NqgdZyKYqrlg2Jjtovyy-1" source="NqgdZyKYqrlg2Jjtovyy-3" target="NqgdZyKYqrlg2Jjtovyy-6">
          <mxGeometry relative="1" as="geometry" />
        </mxCell>
        <mxCell id="NqgdZyKYqrlg2Jjtovyy-3" value="начало" style="ellipse;whiteSpace=wrap;html=1;" vertex="1" parent="NqgdZyKYqrlg2Jjtovyy-1">
          <mxGeometry x="340" y="230" width="120" height="50" as="geometry" />
        </mxCell>
        <mxCell id="NqgdZyKYqrlg2Jjtovyy-4" value="конец" style="ellipse;whiteSpace=wrap;html=1;" vertex="1" parent="NqgdZyKYqrlg2Jjtovyy-1">
          <mxGeometry x="340" y="630" width="120" height="50" as="geometry" />
        </mxCell>
        <mxCell id="NqgdZyKYqrlg2Jjtovyy-5" value="" style="edgeStyle=orthogonalEdgeStyle;rounded=0;orthogonalLoop=1;jettySize=auto;html=1;" edge="1" parent="NqgdZyKYqrlg2Jjtovyy-1" source="NqgdZyKYqrlg2Jjtovyy-6" target="NqgdZyKYqrlg2Jjtovyy-10">
          <mxGeometry relative="1" as="geometry" />
        </mxCell>
        <mxCell id="NqgdZyKYqrlg2Jjtovyy-6" value="ввод" style="shape=parallelogram;perimeter=parallelogramPerimeter;whiteSpace=wrap;html=1;fixedSize=1;size=30;" vertex="1" parent="NqgdZyKYqrlg2Jjtovyy-1">
          <mxGeometry x="335" y="330" width="130" height="60" as="geometry" />
        </mxCell>
        <mxCell id="NqgdZyKYqrlg2Jjtovyy-7" style="edgeStyle=orthogonalEdgeStyle;rounded=0;orthogonalLoop=1;jettySize=auto;html=1;entryX=0.5;entryY=0;entryDx=0;entryDy=0;" edge="1" parent="NqgdZyKYqrlg2Jjtovyy-1" source="NqgdZyKYqrlg2Jjtovyy-8" target="NqgdZyKYqrlg2Jjtovyy-4">
          <mxGeometry relative="1" as="geometry">
            <mxPoint x="400" y="620" as="targetPoint" />
            <Array as="points">
              <mxPoint x="175" y="590" />
              <mxPoint x="400" y="590" />
            </Array>
          </mxGeometry>
        </mxCell>
        <mxCell id="NqgdZyKYqrlg2Jjtovyy-8" value="вывод&lt;br&gt;нет" style="shape=parallelogram;perimeter=parallelogramPerimeter;whiteSpace=wrap;html=1;fixedSize=1;size=30;" vertex="1" parent="NqgdZyKYqrlg2Jjtovyy-1">
          <mxGeometry x="110" y="460" width="130" height="60" as="geometry" />
        </mxCell>
        <mxCell id="NqgdZyKYqrlg2Jjtovyy-9" value="" style="group" vertex="1" connectable="0" parent="NqgdZyKYqrlg2Jjtovyy-1">
          <mxGeometry x="310" y="450" width="180" height="80" as="geometry" />
        </mxCell>
        <mxCell id="NqgdZyKYqrlg2Jjtovyy-10" value="int % 4 == 0" style="rhombus;whiteSpace=wrap;html=1;" vertex="1" parent="NqgdZyKYqrlg2Jjtovyy-9">
          <mxGeometry x="20" width="140" height="80" as="geometry" />
        </mxCell>
        <mxCell id="NqgdZyKYqrlg2Jjtovyy-11" value="да" style="text;html=1;align=center;verticalAlign=middle;resizable=0;points=[];autosize=1;strokeColor=none;fillColor=none;" vertex="1" parent="NqgdZyKYqrlg2Jjtovyy-9">
          <mxGeometry x="140" width="40" height="30" as="geometry" />
        </mxCell>
        <mxCell id="NqgdZyKYqrlg2Jjtovyy-12" value="нет" style="text;html=1;align=center;verticalAlign=middle;resizable=0;points=[];autosize=1;strokeColor=none;fillColor=none;" vertex="1" parent="NqgdZyKYqrlg2Jjtovyy-9">
          <mxGeometry width="40" height="30" as="geometry" />
        </mxCell>
        <mxCell id="NqgdZyKYqrlg2Jjtovyy-13" style="edgeStyle=orthogonalEdgeStyle;rounded=0;orthogonalLoop=1;jettySize=auto;html=1;" edge="1" parent="NqgdZyKYqrlg2Jjtovyy-1" source="NqgdZyKYqrlg2Jjtovyy-14">
          <mxGeometry relative="1" as="geometry">
            <mxPoint x="400" y="630" as="targetPoint" />
            <Array as="points">
              <mxPoint x="620" y="590" />
              <mxPoint x="400" y="590" />
            </Array>
          </mxGeometry>
        </mxCell>
        <mxCell id="NqgdZyKYqrlg2Jjtovyy-14" value="вывод&lt;br&gt;да" style="shape=parallelogram;perimeter=parallelogramPerimeter;whiteSpace=wrap;html=1;fixedSize=1;" vertex="1" parent="NqgdZyKYqrlg2Jjtovyy-1">
          <mxGeometry x="560" y="460" width="120" height="60" as="geometry" />
        </mxCell>
        <mxCell id="NqgdZyKYqrlg2Jjtovyy-15" value="" style="edgeStyle=orthogonalEdgeStyle;rounded=0;orthogonalLoop=1;jettySize=auto;html=1;" edge="1" parent="NqgdZyKYqrlg2Jjtovyy-1" source="NqgdZyKYqrlg2Jjtovyy-10" target="NqgdZyKYqrlg2Jjtovyy-14">
          <mxGeometry relative="1" as="geometry" />
        </mxCell>
        <mxCell id="NqgdZyKYqrlg2Jjtovyy-16" value="" style="edgeStyle=orthogonalEdgeStyle;rounded=0;orthogonalLoop=1;jettySize=auto;html=1;" edge="1" parent="NqgdZyKYqrlg2Jjtovyy-1" target="NqgdZyKYqrlg2Jjtovyy-8">
          <mxGeometry relative="1" as="geometry">
            <mxPoint x="330" y="490" as="sourcePoint" />
          </mxGeometry>
        </mxCell>
      </root>
    </mxGraphModel>
  </diagram>
  <diagram id="IeCDW4krwWM3fsbyBebH" name="Page-2">
    <mxGraphModel dx="1360" dy="775" grid="1" gridSize="10" guides="1" tooltips="1" connect="1" arrows="1" fold="1" page="1" pageScale="1" pageWidth="850" pageHeight="1100" math="0" shadow="0">
      <root>
        <mxCell id="0" />
        <mxCell id="1" parent="0" />
      </root>
    </mxGraphModel>
  </diagram>
  <diagram id="iD4AHHh5mb-Y5INbrkXi" name="Page-3">
    <mxGraphModel dx="1360" dy="775" grid="1" gridSize="10" guides="1" tooltips="1" connect="1" arrows="1" fold="1" page="1" pageScale="1" pageWidth="850" pageHeight="1100" math="0" shadow="0">
      <root>
        <mxCell id="0" />
        <mxCell id="1" parent="0" />
      </root>
    </mxGraphModel>
  </diagram>
</mxfile>
